<?xml version="1.0" encoding="UTF-8"?>
<svg xmlns="http://www.w3.org/2000/svg" width="1200" height="680" viewBox="0 0 1200 680">
<rect x="0" y="0" width="1200" height="680" fill="#ffffff"/>
<text x="600" y="42" text-anchor="middle" font-size="24" font-family="Arial" font-weight="700" fill="#111827">Lot History Sweep: Trajectory Query Gas</text>
<text x="37" y="72" text-anchor="start" font-size="14" font-family="Arial" fill="#374151">Gas</text>
<line x1="95" y1="540" x2="1170" y2="540" stroke="#e5e7eb" stroke-width="1"/>
<text x="83" y="545" text-anchor="end" font-size="12" font-family="Arial" fill="#6b7280">0</text>
<line x1="95" y1="450" x2="1170" y2="450" stroke="#e5e7eb" stroke-width="1"/>
<text x="83" y="455" text-anchor="end" font-size="12" font-family="Arial" fill="#6b7280">50,000</text>
<line x1="95" y1="360" x2="1170" y2="360" stroke="#e5e7eb" stroke-width="1"/>
<text x="83" y="365" text-anchor="end" font-size="12" font-family="Arial" fill="#6b7280">100,000</text>
<line x1="95" y1="270" x2="1170" y2="270" stroke="#e5e7eb" stroke-width="1"/>
<text x="83" y="275" text-anchor="end" font-size="12" font-family="Arial" fill="#6b7280">150,000</text>
<line x1="95" y1="180" x2="1170" y2="180" stroke="#e5e7eb" stroke-width="1"/>
<text x="83" y="185" text-anchor="end" font-size="12" font-family="Arial" fill="#6b7280">200,000</text>
<line x1="95" y1="90" x2="1170" y2="90" stroke="#e5e7eb" stroke-width="1"/>
<text x="83" y="95" text-anchor="end" font-size="12" font-family="Arial" fill="#6b7280">250,000</text>
<line x1="95" y1="90" x2="95" y2="540" stroke="#111827" stroke-width="1.5"/>
<line x1="95" y1="540" x2="1170" y2="540" stroke="#111827" stroke-width="1.5"/>
<rect x="95" y="58" width="16" height="16" fill="#0f766e" rx="2"/>
<text x="119" y="71" font-size="13" font-family="Arial" fill="#374151">Trajectory</text>
<rect x="270" y="58" width="16" height="16" fill="#f97316" rx="2"/>
<text x="294" y="71" font-size="13" font-family="Arial" fill="#374151">Location At Time</text>
<rect x="141.58333333333334" y="454.0644" width="128.58333333333331" height="85.9356" fill="#0f766e" rx="3"/>
<text x="205.875" y="448.0644" text-anchor="middle" font-size="11" font-family="Arial" fill="#374151">47,742</text>
<rect x="274.16666666666663" y="467.5356" width="128.58333333333331" height="72.4644" fill="#f97316" rx="3"/>
<text x="338.45833333333326" y="461.5356" text-anchor="middle" font-size="11" font-family="Arial" fill="#374151">40,258</text>
<text x="274.16666666666663" y="636" text-anchor="middle" font-size="13" font-family="Arial" fill="#111827">3/lot</text>
<rect x="499.91666666666663" y="360.4554" width="128.58333333333331" height="179.5446" fill="#0f766e" rx="3"/>
<text x="564.2083333333333" y="354.4554" text-anchor="middle" font-size="11" font-family="Arial" fill="#374151">99,747</text>
<rect x="632.5" y="450.9252" width="128.58333333333331" height="89.07480000000001" fill="#f97316" rx="3"/>
<text x="696.7916666666666" y="444.9252" text-anchor="middle" font-size="11" font-family="Arial" fill="#374151">49,486</text>
<text x="632.5" y="636" text-anchor="middle" font-size="13" font-family="Arial" fill="#111827">10/lot</text>
<rect x="858.25" y="159.8256" width="128.58333333333331" height="380.1744" fill="#0f766e" rx="3"/>
<text x="922.5416666666666" y="153.8256" text-anchor="middle" font-size="11" font-family="Arial" fill="#374151">211,208</text>
<rect x="990.8333333333333" y="426.0096" width="128.58333333333331" height="113.9904" fill="#f97316" rx="3"/>
<text x="1055.125" y="420.0096" text-anchor="middle" font-size="11" font-family="Arial" fill="#374151">63,328</text>
<text x="990.8333333333333" y="636" text-anchor="middle" font-size="13" font-family="Arial" fill="#111827">25/lot</text>
</svg>
